<mxfile host="app.diagrams.net" modified="2024-03-18T02:56:47.713Z" agent="Mozilla/5.0 (Macintosh; Intel Mac OS X 10_15_7) AppleWebKit/537.36 (KHTML, like Gecko) Chrome/122.0.0.0 Safari/537.36" etag="XzGs3z0q1JsyR89nPya5" version="24.0.2" type="github">
  <diagram name="第 1 页" id="nmOxsx0Euh56K6lD_PBr">
    <mxGraphModel dx="2074" dy="1180" grid="1" gridSize="10" guides="1" tooltips="1" connect="1" arrows="1" fold="1" page="1" pageScale="1" pageWidth="1200" pageHeight="500" math="0" shadow="0">
      <root>
        <mxCell id="0" />
        <mxCell id="1" parent="0" />
        <mxCell id="Jvqhb4FVt9Vy9GDMDFfO-33" value="" style="rounded=0;whiteSpace=wrap;html=1;dashed=1;dashPattern=8 8;" vertex="1" parent="1">
          <mxGeometry x="630" y="50" width="120" height="190" as="geometry" />
        </mxCell>
        <mxCell id="Jvqhb4FVt9Vy9GDMDFfO-1" value="我要研究一下微导纳米" style="rounded=0;whiteSpace=wrap;html=1;" vertex="1" parent="1">
          <mxGeometry x="80" y="80" width="160" height="30" as="geometry" />
        </mxCell>
        <mxCell id="Jvqhb4FVt9Vy9GDMDFfO-2" value="想了解一下这只基金的表现" style="rounded=0;whiteSpace=wrap;html=1;" vertex="1" parent="1">
          <mxGeometry x="80" y="130" width="160" height="30" as="geometry" />
        </mxCell>
        <mxCell id="Jvqhb4FVt9Vy9GDMDFfO-3" value="一定可以赚钱吗" style="rounded=0;whiteSpace=wrap;html=1;" vertex="1" parent="1">
          <mxGeometry x="80" y="180" width="160" height="30" as="geometry" />
        </mxCell>
        <mxCell id="Jvqhb4FVt9Vy9GDMDFfO-4" value="行情解读" style="rounded=0;whiteSpace=wrap;html=1;" vertex="1" parent="1">
          <mxGeometry x="280" y="80" width="90" height="30" as="geometry" />
        </mxCell>
        <mxCell id="Jvqhb4FVt9Vy9GDMDFfO-21" value="" style="edgeStyle=orthogonalEdgeStyle;rounded=0;orthogonalLoop=1;jettySize=auto;html=1;" edge="1" parent="1" source="Jvqhb4FVt9Vy9GDMDFfO-5" target="Jvqhb4FVt9Vy9GDMDFfO-15">
          <mxGeometry relative="1" as="geometry" />
        </mxCell>
        <mxCell id="Jvqhb4FVt9Vy9GDMDFfO-5" value="产品评测" style="rounded=0;whiteSpace=wrap;html=1;" vertex="1" parent="1">
          <mxGeometry x="280" y="130" width="90" height="30" as="geometry" />
        </mxCell>
        <mxCell id="Jvqhb4FVt9Vy9GDMDFfO-6" value="投教内容" style="rounded=0;whiteSpace=wrap;html=1;" vertex="1" parent="1">
          <mxGeometry x="280" y="180" width="90" height="30" as="geometry" />
        </mxCell>
        <mxCell id="Jvqhb4FVt9Vy9GDMDFfO-26" value="" style="edgeStyle=orthogonalEdgeStyle;rounded=0;orthogonalLoop=1;jettySize=auto;html=1;" edge="1" parent="1" source="Jvqhb4FVt9Vy9GDMDFfO-7" target="Jvqhb4FVt9Vy9GDMDFfO-8">
          <mxGeometry relative="1" as="geometry" />
        </mxCell>
        <mxCell id="Jvqhb4FVt9Vy9GDMDFfO-7" value="资产配置" style="rounded=1;whiteSpace=wrap;html=1;" vertex="1" parent="1">
          <mxGeometry x="650" y="62.5" width="80" height="35" as="geometry" />
        </mxCell>
        <mxCell id="Jvqhb4FVt9Vy9GDMDFfO-27" value="" style="edgeStyle=orthogonalEdgeStyle;rounded=0;orthogonalLoop=1;jettySize=auto;html=1;" edge="1" parent="1" source="Jvqhb4FVt9Vy9GDMDFfO-8" target="Jvqhb4FVt9Vy9GDMDFfO-9">
          <mxGeometry relative="1" as="geometry" />
        </mxCell>
        <mxCell id="Jvqhb4FVt9Vy9GDMDFfO-8" value="基金经理评测" style="rounded=1;whiteSpace=wrap;html=1;" vertex="1" parent="1">
          <mxGeometry x="790" y="62.5" width="80" height="35" as="geometry" />
        </mxCell>
        <mxCell id="Jvqhb4FVt9Vy9GDMDFfO-9" value="加减仓服务" style="rounded=1;whiteSpace=wrap;html=1;" vertex="1" parent="1">
          <mxGeometry x="920" y="62.5" width="80" height="35" as="geometry" />
        </mxCell>
        <mxCell id="Jvqhb4FVt9Vy9GDMDFfO-28" value="" style="edgeStyle=orthogonalEdgeStyle;rounded=0;orthogonalLoop=1;jettySize=auto;html=1;" edge="1" parent="1" source="Jvqhb4FVt9Vy9GDMDFfO-10" target="Jvqhb4FVt9Vy9GDMDFfO-11">
          <mxGeometry relative="1" as="geometry" />
        </mxCell>
        <mxCell id="Jvqhb4FVt9Vy9GDMDFfO-10" value="收益分析" style="rounded=1;whiteSpace=wrap;html=1;" vertex="1" parent="1">
          <mxGeometry x="650" y="127.5" width="80" height="35" as="geometry" />
        </mxCell>
        <mxCell id="Jvqhb4FVt9Vy9GDMDFfO-11" value="加减仓服务" style="rounded=1;whiteSpace=wrap;html=1;" vertex="1" parent="1">
          <mxGeometry x="790" y="127.5" width="80" height="35" as="geometry" />
        </mxCell>
        <mxCell id="Jvqhb4FVt9Vy9GDMDFfO-29" value="" style="edgeStyle=orthogonalEdgeStyle;rounded=0;orthogonalLoop=1;jettySize=auto;html=1;" edge="1" parent="1" source="Jvqhb4FVt9Vy9GDMDFfO-13" target="Jvqhb4FVt9Vy9GDMDFfO-14">
          <mxGeometry relative="1" as="geometry" />
        </mxCell>
        <mxCell id="Jvqhb4FVt9Vy9GDMDFfO-13" value="资产配置" style="rounded=1;whiteSpace=wrap;html=1;" vertex="1" parent="1">
          <mxGeometry x="650" y="192.5" width="80" height="35" as="geometry" />
        </mxCell>
        <mxCell id="Jvqhb4FVt9Vy9GDMDFfO-14" value="加减仓服务" style="rounded=1;whiteSpace=wrap;html=1;" vertex="1" parent="1">
          <mxGeometry x="790" y="192.5" width="80" height="35" as="geometry" />
        </mxCell>
        <mxCell id="Jvqhb4FVt9Vy9GDMDFfO-24" value="" style="edgeStyle=orthogonalEdgeStyle;rounded=0;orthogonalLoop=1;jettySize=auto;html=1;" edge="1" parent="1" source="Jvqhb4FVt9Vy9GDMDFfO-15" target="Jvqhb4FVt9Vy9GDMDFfO-10">
          <mxGeometry relative="1" as="geometry" />
        </mxCell>
        <mxCell id="Jvqhb4FVt9Vy9GDMDFfO-15" value="LLM" style="rounded=1;whiteSpace=wrap;html=1;" vertex="1" parent="1">
          <mxGeometry x="450" y="121.88" width="90" height="46.25" as="geometry" />
        </mxCell>
        <mxCell id="Jvqhb4FVt9Vy9GDMDFfO-17" value="历史对话" style="text;html=1;align=center;verticalAlign=middle;whiteSpace=wrap;rounded=0;" vertex="1" parent="1">
          <mxGeometry x="130" y="40" width="60" height="30" as="geometry" />
        </mxCell>
        <mxCell id="Jvqhb4FVt9Vy9GDMDFfO-18" value="历史服务" style="text;html=1;align=center;verticalAlign=middle;whiteSpace=wrap;rounded=0;" vertex="1" parent="1">
          <mxGeometry x="295" y="40" width="60" height="30" as="geometry" />
        </mxCell>
        <mxCell id="Jvqhb4FVt9Vy9GDMDFfO-20" value="" style="curved=1;endArrow=classic;html=1;rounded=0;entryX=0;entryY=0.25;entryDx=0;entryDy=0;" edge="1" parent="1" target="Jvqhb4FVt9Vy9GDMDFfO-15">
          <mxGeometry width="50" height="50" relative="1" as="geometry">
            <mxPoint x="370" y="97.5" as="sourcePoint" />
            <mxPoint x="420" y="47.5" as="targetPoint" />
            <Array as="points">
              <mxPoint x="420" y="98" />
            </Array>
          </mxGeometry>
        </mxCell>
        <mxCell id="Jvqhb4FVt9Vy9GDMDFfO-22" value="" style="curved=1;endArrow=classic;html=1;rounded=0;entryX=0;entryY=0.75;entryDx=0;entryDy=0;" edge="1" parent="1" target="Jvqhb4FVt9Vy9GDMDFfO-15">
          <mxGeometry width="50" height="50" relative="1" as="geometry">
            <mxPoint x="370" y="200" as="sourcePoint" />
            <mxPoint x="420" y="150" as="targetPoint" />
            <Array as="points">
              <mxPoint x="420" y="200" />
            </Array>
          </mxGeometry>
        </mxCell>
        <mxCell id="Jvqhb4FVt9Vy9GDMDFfO-23" value="" style="curved=1;endArrow=classic;html=1;rounded=0;entryX=0;entryY=0.5;entryDx=0;entryDy=0;" edge="1" parent="1" target="Jvqhb4FVt9Vy9GDMDFfO-7">
          <mxGeometry width="50" height="50" relative="1" as="geometry">
            <mxPoint x="540" y="140" as="sourcePoint" />
            <mxPoint x="590" y="90" as="targetPoint" />
            <Array as="points">
              <mxPoint x="560" y="110" />
              <mxPoint x="590" y="90" />
            </Array>
          </mxGeometry>
        </mxCell>
        <mxCell id="Jvqhb4FVt9Vy9GDMDFfO-25" value="" style="curved=1;endArrow=classic;html=1;rounded=0;entryX=0;entryY=0.5;entryDx=0;entryDy=0;" edge="1" parent="1" target="Jvqhb4FVt9Vy9GDMDFfO-13">
          <mxGeometry width="50" height="50" relative="1" as="geometry">
            <mxPoint x="540" y="150" as="sourcePoint" />
            <mxPoint x="590" y="100" as="targetPoint" />
            <Array as="points">
              <mxPoint x="570" y="190" />
              <mxPoint x="590" y="200" />
            </Array>
          </mxGeometry>
        </mxCell>
        <mxCell id="Jvqhb4FVt9Vy9GDMDFfO-30" value="给定历史对话和服务，大语言模型以目标服务为导向（加减仓）推理出几条达成目标服务最优的对话路径" style="text;html=1;align=center;verticalAlign=middle;whiteSpace=wrap;rounded=0;" vertex="1" parent="1">
          <mxGeometry x="400" y="50" width="200" height="30" as="geometry" />
        </mxCell>
        <mxCell id="Jvqhb4FVt9Vy9GDMDFfO-37" style="edgeStyle=orthogonalEdgeStyle;rounded=0;orthogonalLoop=1;jettySize=auto;html=1;entryX=0.633;entryY=0.967;entryDx=0;entryDy=0;entryPerimeter=0;" edge="1" parent="1" source="Jvqhb4FVt9Vy9GDMDFfO-33">
          <mxGeometry relative="1" as="geometry">
            <mxPoint x="257.98" y="249.01" as="targetPoint" />
            <Array as="points">
              <mxPoint x="690" y="300" />
              <mxPoint x="258" y="300" />
            </Array>
          </mxGeometry>
        </mxCell>
        <mxCell id="Jvqhb4FVt9Vy9GDMDFfO-38" value="用户点选之后对应的query和服务会重新叠加到历史中，重新进行对话路径编排" style="text;html=1;align=center;verticalAlign=middle;whiteSpace=wrap;rounded=0;" vertex="1" parent="1">
          <mxGeometry x="355" y="260" width="250" height="30" as="geometry" />
        </mxCell>
      </root>
    </mxGraphModel>
  </diagram>
</mxfile>
